<svg width="24" height="25" viewBox="0 0 24 25" fill="none" xmlns="http://www.w3.org/2000/svg">
<path d="M6.99986 2.61536H12.9999C15.8283 2.61536 17.2425 2.61536 18.1212 3.49404C18.9999 4.37272 18.9999 5.78693 18.9999 8.61536V15.6154V20.6152C18.9999 21.7199 19.8954 22.6154 21 22.6154H6.99986C4.17143 22.6154 2.75722 22.6154 1.87854 21.7367C0.999861 20.858 0.999861 19.4438 0.999861 16.6154V8.61536C0.999861 5.78693 0.999861 4.37272 1.87854 3.49404C2.75722 2.61536 4.17143 2.61536 6.99986 2.61536Z" fill="white" stroke="white" stroke-width="1.5"/>
<path d="M19 20.6154V13.6154H21C22.1046 13.6154 23 14.5108 23 15.6154V20.6154C23 21.7199 22.1046 22.6154 21 22.6154C19.8954 22.6154 19 21.7199 19 20.6154Z" stroke="white" stroke-width="1.5"/>
<rect x="4.5" y="17.1154" width="11" height="1.5" rx="0.5" fill="black"/>
<rect width="10" height="7" rx="1" transform="matrix(-1 0 0 1 15 6.61536)" stroke="black" stroke-width="1.5"/>
</svg>
