<svg width="24" height="25" viewBox="0 0 24 25" fill="none" xmlns="http://www.w3.org/2000/svg">
<path d="M21 8.98C20.9896 8.88814 20.9695 8.79763 20.94 8.71V8.62C20.8919 8.51718 20.8278 8.42267 20.75 8.34L14.75 2.34C14.6673 2.26222 14.5728 2.19808 14.47 2.15C14.4402 2.14576 14.4099 2.14576 14.38 2.15C14.2784 2.09174 14.1662 2.05435 14.05 2.04H10C9.20435 2.04 8.44129 2.35607 7.87868 2.91868C7.31607 3.48129 7 4.24435 7 5.04V6.04H6C5.20435 6.04 4.44129 6.35607 3.87868 6.91868C3.31607 7.48129 3 8.24435 3 9.04V19.04C3 19.8356 3.31607 20.5987 3.87868 21.1613C4.44129 21.7239 5.20435 22.04 6 22.04H14C14.7956 22.04 15.5587 21.7239 16.1213 21.1613C16.6839 20.5987 17 19.8356 17 19.04V18.04H18C18.7956 18.04 19.5587 17.7239 20.1213 17.1613C20.6839 16.5987 21 15.8357 21 15.04V9.04V8.98ZM15 5.45L17.59 8.04H16C15.7348 8.04 15.4804 7.93464 15.2929 7.74711C15.1054 7.55957 15 7.30522 15 7.04V5.45ZM15 19.04C15 19.3052 14.8946 19.5596 14.7071 19.7471C14.5196 19.9346 14.2652 20.04 14 20.04H6C5.73478 20.04 5.48043 19.9346 5.29289 19.7471C5.10536 19.5596 5 19.3052 5 19.04V9.04C5 8.77478 5.10536 8.52043 5.29289 8.33289C5.48043 8.14536 5.73478 8.04 6 8.04H7V15.04C7 15.8357 7.31607 16.5987 7.87868 17.1613C8.44129 17.7239 9.20435 18.04 10 18.04H15V19.04ZM19 15.04C19 15.3052 18.8946 15.5596 18.7071 15.7471C18.5196 15.9346 18.2652 16.04 18 16.04H10C9.73478 16.04 9.48043 15.9346 9.29289 15.7471C9.10536 15.5596 9 15.3052 9 15.04V5.04C9 4.77478 9.10536 4.52043 9.29289 4.33289C9.48043 4.14536 9.73478 4.04 10 4.04H13V7.04C13 7.83565 13.3161 8.59871 13.8787 9.16132C14.4413 9.72393 15.2044 10.04 16 10.04H19V15.04Z" fill="black"/>
</svg>
