<svg width="32" height="32" viewBox="0 0 32 32" fill="none" xmlns="http://www.w3.org/2000/svg">
<circle cx="16" cy="16" r="16" fill="black"/>
<path d="M18.6665 10.6667C19.2865 10.6667 19.5965 10.6667 19.8508 10.7348C20.541 10.9198 21.0801 11.4589 21.265 12.149C21.3332 12.4034 21.3332 12.7134 21.3332 13.3333V19.4667C21.3332 20.5868 21.3332 21.1468 21.1152 21.5747C20.9234 21.951 20.6175 22.2569 20.2412 22.4487C19.8133 22.6667 19.2533 22.6667 18.1332 22.6667H13.8665C12.7464 22.6667 12.1863 22.6667 11.7585 22.4487C11.3822 22.2569 11.0762 21.951 10.8845 21.5747C10.6665 21.1468 10.6665 20.5868 10.6665 19.4667V13.3333C10.6665 12.7134 10.6665 12.4034 10.7347 12.149C10.9196 11.4589 11.4587 10.9198 12.1489 10.7348C12.4032 10.6667 12.7132 10.6667 13.3332 10.6667M15.3331 19.6667H13.3331M17.6664 17H13.3331M14.3998 12H17.5998C17.9732 12 18.1599 12 18.3025 11.9273C18.4279 11.8634 18.5299 11.7614 18.5938 11.636C18.6665 11.4934 18.6665 11.3067 18.6665 10.9333V10.4C18.6665 10.0266 18.6665 9.83996 18.5938 9.69735C18.5299 9.57191 18.4279 9.46992 18.3025 9.40601C18.1599 9.33334 17.9732 9.33334 17.5998 9.33334H14.3998C14.0265 9.33334 13.8398 9.33334 13.6972 9.40601C13.5717 9.46992 13.4697 9.57191 13.4058 9.69735C13.3332 9.83996 13.3332 10.0266 13.3332 10.4V10.9333C13.3332 11.3067 13.3332 11.4934 13.4058 11.636C13.4697 11.7614 13.5717 11.8634 13.6972 11.9273C13.8398 12 14.0265 12 14.3998 12Z" stroke="white" stroke-width="1.5" stroke-linecap="round" stroke-linejoin="round"/>
</svg>
