<svg width="24" height="25" viewBox="0 0 24 25" fill="none" xmlns="http://www.w3.org/2000/svg">
<mask id="path-1-inside-1_13657_22172" fill="white">
<path fill-rule="evenodd" clip-rule="evenodd" d="M12 23.6154C5.84037 23.6154 4.18232 23.3034 2.74717 21.8682C1.30306 20.4241 1 18.775 1 12.6154C1 6.45573 1.31199 4.80661 2.74717 3.36253C4.18232 1.92735 5.84037 1.61536 12 1.61536C18.1596 1.61536 19.8177 1.92735 21.2528 3.36253C22.6969 4.80661 23 6.45573 23 12.6154C23 18.775 22.6969 20.4241 21.2528 21.8682C19.8177 23.3034 18.1596 23.6154 12 23.6154Z"/>
</mask>
<path d="M2.74717 21.8682L3.80785 20.8075L3.80782 20.8075L2.74717 21.8682ZM2.74717 3.36253L1.68649 2.30188L1.68324 2.30515L2.74717 3.36253ZM21.2528 3.36253L20.1922 4.42318L20.1922 4.42319L21.2528 3.36253ZM21.2528 21.8682L20.1922 20.8075L20.1922 20.8075L21.2528 21.8682ZM12 22.1154C8.90493 22.1154 7.08603 22.0336 5.88008 21.806C4.78166 21.5987 4.2908 21.2905 3.80785 20.8075L1.6865 22.9288C2.63869 23.881 3.69443 24.4465 5.32373 24.7539C6.84551 25.0411 8.93544 25.1154 12 25.1154V22.1154ZM3.80782 20.8075C3.31966 20.3194 3.01222 19.8284 2.8062 18.7329C2.57961 17.528 2.5 15.7117 2.5 12.6154H-0.5C-0.5 15.6786 -0.428084 17.7667 -0.142115 19.2873C0.164424 20.9173 0.730574 21.9729 1.68652 22.9289L3.80782 20.8075ZM2.5 12.6154C2.5 9.52026 2.58179 7.70371 2.80933 6.49901C3.01645 5.40245 3.32467 4.90936 3.81111 4.4199L1.68324 2.30515C0.734497 3.25978 0.169128 4.31329 -0.138544 5.94221C-0.425792 7.46301 -0.5 9.55083 -0.5 12.6154H2.5ZM3.80785 4.42318C4.2908 3.94021 4.78166 3.63203 5.88008 3.42473C7.08603 3.19714 8.90493 3.11536 12 3.11536V0.115356C8.93544 0.115356 6.84551 0.189572 5.32373 0.476771C3.69443 0.784262 2.63869 1.34967 1.6865 2.30188L3.80785 4.42318ZM12 3.11536C15.0951 3.11536 16.914 3.19714 18.1199 3.42473C19.2183 3.63203 19.7092 3.94021 20.1922 4.42318L22.3135 2.30188C21.3613 1.34967 20.3056 0.784261 18.6763 0.476771C17.1545 0.189572 15.0646 0.115356 12 0.115356V3.11536ZM20.1922 4.42319C20.6803 4.91135 20.9878 5.40236 21.1938 6.49785C21.4204 7.70272 21.5 9.51898 21.5 12.6154H24.5C24.5 9.55211 24.4281 7.464 24.1421 5.94338C23.8356 4.31338 23.2694 3.25779 22.3135 2.30187L20.1922 4.42319ZM21.5 12.6154C21.5 15.7117 21.4204 17.528 21.1938 18.7329C20.9878 19.8284 20.6803 20.3194 20.1922 20.8075L22.3135 22.9288C23.2694 21.9729 23.8356 20.9173 24.1421 19.2873C24.4281 17.7667 24.5 15.6786 24.5 12.6154H21.5ZM20.1922 20.8075C19.7092 21.2905 19.2183 21.5987 18.1199 21.806C16.914 22.0336 15.0951 22.1154 12 22.1154V25.1154C15.0646 25.1154 17.1545 25.0411 18.6763 24.7539C20.3056 24.4465 21.3613 23.881 22.3135 22.9288L20.1922 20.8075Z" fill="white" mask="url(#path-1-inside-1_13657_22172)"/>
<path d="M14.1433 5.61549C14.1302 5.61651 14.1171 5.61817 14.1041 5.62046C14.0557 5.62707 14.0093 5.64237 13.9678 5.66544C13.9263 5.68851 13.8906 5.71885 13.8628 5.7546L7.39955 13.6136C7.36155 13.6611 7.33901 13.7169 7.33439 13.775C7.32976 13.8331 7.34323 13.8912 7.37333 13.9429C7.40342 13.9947 7.44899 14.0381 7.50506 14.0685C7.56113 14.099 7.62555 14.1151 7.6913 14.1154H11.1418L9.32393 19.1885C9.29398 19.2613 9.29508 19.3413 9.32702 19.4134C9.35895 19.4856 9.41953 19.5449 9.49737 19.5803C9.57521 19.6156 9.66495 19.6246 9.74976 19.6056C9.83456 19.5865 9.90858 19.5407 9.95792 19.4767L16.6007 11.6171C16.6387 11.5696 16.6613 11.5138 16.6659 11.4557C16.6705 11.3976 16.6571 11.3396 16.627 11.2878C16.5969 11.236 16.5513 11.1926 16.4952 11.1622C16.4392 11.1318 16.3748 11.1156 16.309 11.1154H12.8417L14.4968 6.02785C14.5138 5.9795 14.5175 5.92825 14.5076 5.87837C14.4977 5.8285 14.4745 5.78143 14.44 5.74109C14.4054 5.70076 14.3604 5.66831 14.3088 5.64647C14.2573 5.62462 14.2005 5.614 14.1433 5.61549Z" fill="white"/>
</svg>
