<svg width="24" height="24" viewBox="0 0 24 24" fill="none" xmlns="http://www.w3.org/2000/svg">
<path fill-rule="evenodd" clip-rule="evenodd" d="M18 3.4H6C4.56406 3.4 3.4 4.56406 3.4 6V18C3.4 19.4359 4.56406 20.6 6 20.6H18C19.4359 20.6 20.6 19.4359 20.6 18V6C20.6 4.56406 19.4359 3.4 18 3.4ZM6 2C3.79086 2 2 3.79086 2 6V18C2 20.2091 3.79086 22 6 22H18C20.2091 22 22 20.2091 22 18V6C22 3.79086 20.2091 2 18 2H6Z" fill="black"/>
<path fill-rule="evenodd" clip-rule="evenodd" d="M4.01299 3.49722C4.29066 3.22823 4.73382 3.23526 5.00282 3.51293L20.5028 19.5129C20.7718 19.7906 20.7648 20.2338 20.4871 20.5028C20.2094 20.7718 19.7663 20.7647 19.4973 20.487L3.99728 4.48705C3.72829 4.20937 3.73532 3.76621 4.01299 3.49722Z" fill="black"/>
</svg>
