<svg width="24" height="24" viewBox="0 0 24 24" fill="none" xmlns="http://www.w3.org/2000/svg">
<path fill-rule="evenodd" clip-rule="evenodd" d="M7.00001 1.34767H13C13.0299 1.34767 13.0598 1.34767 13.0895 1.34766C13.9551 1.34756 14.7488 1.34747 15.3944 1.43427C16.1054 1.52986 16.8568 1.75475 17.4749 2.3728C18.0929 2.99084 18.3178 3.74229 18.4134 4.45326C18.5002 5.09888 18.5001 5.89255 18.5 6.75818C18.5 6.78793 18.5 6.81776 18.5 6.84767V13.8477C18.5 13.8776 18.5 13.9074 18.5 13.9372C18.5001 14.8028 18.5002 15.5965 18.4134 16.2421C18.3178 16.953 18.0929 17.7045 17.4749 18.3225C16.8568 18.9406 16.1054 19.1655 15.3944 19.2611C14.7488 19.3479 13.9551 19.3478 13.0895 19.3477C13.0598 19.3477 13.0299 19.3477 13 19.3477H7.00001C6.9701 19.3477 6.94027 19.3477 6.91053 19.3477C6.04489 19.3478 5.25122 19.3479 4.6056 19.2611C3.89464 19.1655 3.14319 18.9406 2.52514 18.3225C1.90709 17.7045 1.6822 16.953 1.58661 16.2421C1.49981 15.5965 1.4999 14.8028 1.50001 13.9372C1.50001 13.9074 1.50001 13.8776 1.50001 13.8477V6.84767C1.50001 6.81775 1.50001 6.78792 1.50001 6.75817C1.4999 5.89254 1.49981 5.09888 1.58661 4.45326C1.6822 3.74229 1.90709 2.99084 2.52514 2.3728C3.14319 1.75475 3.89464 1.52986 4.6056 1.43427C5.25122 1.34747 6.04488 1.34756 6.91052 1.34766C6.94027 1.34767 6.9701 1.34767 7.00001 1.34767ZM3.5858 3.43346C3.00001 4.01924 3.00001 4.96205 3.00001 6.84767V13.8477C3.00001 15.7333 3.00001 16.6761 3.5858 17.2619C4.17159 17.8477 5.1144 17.8477 7.00001 17.8477H13C14.8856 17.8477 15.8284 17.8477 16.4142 17.2619C17 16.6761 17 15.7333 17 13.8477V6.84767C17 4.96205 17 4.01924 16.4142 3.43346C15.8284 2.84767 14.8856 2.84767 13 2.84767H7.00001C5.1144 2.84767 4.17159 2.84767 3.5858 3.43346Z" fill="black"/>
<path fill-rule="evenodd" clip-rule="evenodd" d="M4.64863 17.7505C4.76497 18.5215 4.9839 19.2429 5.42554 19.9039C5.82682 20.5044 6.34244 21.02 6.94299 21.4213C7.73498 21.9505 8.61372 22.1599 9.56067 22.2563C10.4653 22.3483 11.5828 22.3483 12.9219 22.3482H13.0753C14.4145 22.3483 15.5319 22.3483 16.4366 22.2563C17.3835 22.1599 18.2623 21.9505 19.0543 21.4213C19.6548 21.02 20.1704 20.5044 20.5717 19.9039C21.1009 19.1119 21.3103 18.2331 21.4067 17.2862C21.4987 16.3815 21.4987 15.2641 21.4986 13.925V12.7716C21.4987 11.4324 21.4987 10.3149 21.4067 9.41028C21.3103 8.46333 21.1009 7.58459 20.5717 6.7926C20.1704 6.19205 19.6548 5.67642 19.0543 5.27515C18.394 4.83396 17.6734 4.61503 16.9033 4.49859C16.9727 4.90344 16.9923 5.40478 16.9978 6.03846C17.4798 6.13826 17.8738 6.2904 18.2209 6.52236C18.6577 6.81419 19.0327 7.18919 19.3245 7.62596C19.9986 8.63485 19.9986 10.0393 19.9986 12.8482V13.8482C19.9986 16.6572 19.9986 18.0616 19.3245 19.0705C19.0327 19.5073 18.6577 19.8823 18.2209 20.1741C17.212 20.8482 15.8076 20.8482 12.9986 20.8482C10.1897 20.8482 8.78524 20.8482 7.77635 20.1741C7.33959 19.8823 6.96458 19.5073 6.67275 19.0705C6.44047 18.7229 6.28823 18.3283 6.18845 17.8455C5.55468 17.8399 5.05338 17.8202 4.64863 17.7505Z" fill="black"/>
<path d="M5.00001 6.75001C5.00001 6.3358 5.3358 6.00001 5.75001 6.00001H13.25C13.6642 6.00001 14 6.3358 14 6.75001C14 7.16423 13.6642 7.50001 13.25 7.50001H5.75001C5.3358 7.50001 5.00001 7.16423 5.00001 6.75001Z" fill="black"/>
<path d="M5.00001 9.75001C5.00001 9.3358 5.3358 9.00001 5.75001 9.00001H10.25C10.6642 9.00001 11 9.3358 11 9.75001C11 10.1642 10.6642 10.5 10.25 10.5H5.75001C5.3358 10.5 5.00001 10.1642 5.00001 9.75001Z" fill="black"/>
</svg>
