<svg width="24" height="24" viewBox="0 0 24 24" fill="none" xmlns="http://www.w3.org/2000/svg">
<path fill-rule="evenodd" clip-rule="evenodd" d="M6 13.5L13 13.5C13.2761 13.5 13.5 13.2761 13.5 13L13.5 6C13.5 5.72386 13.2761 5.5 13 5.5L6 5.5C5.72386 5.5 5.5 5.72386 5.5 6L5.5 13C5.5 13.2761 5.72386 13.5 6 13.5ZM13 15C14.1046 15 15 14.1046 15 13L15 6C15 4.89543 14.1046 4 13 4L6 4C4.89543 4 4 4.89543 4 6L4 13C4 14.1046 4.89543 15 6 15L13 15Z" fill="black"/>
<path fill-rule="evenodd" clip-rule="evenodd" d="M18 18.5L11 18.5C10.7239 18.5 10.5 18.2761 10.5 18V16H9V18C9 19.1046 9.89543 20 11 20H18C19.1046 20 20 19.1046 20 18V11C20 9.89543 19.1046 9 18 9H16V10.5H18C18.2761 10.5 18.5 10.7239 18.5 11L18.5 18C18.5 18.2761 18.2761 18.5 18 18.5Z" fill="black"/>
</svg>
