<svg width="48" height="48" viewBox="0 0 48 48" fill="none" xmlns="http://www.w3.org/2000/svg">
<mask id="mask0_130325_414640" style="mask-type:luminance" maskUnits="userSpaceOnUse" x="0" y="0" width="48" height="48">
<path fill-rule="evenodd" clip-rule="evenodd" d="M0 0H48V48H0V0Z" fill="white"/>
</mask>
<g mask="url(#mask0_130325_414640)">
<path fill-rule="evenodd" clip-rule="evenodd" d="M24 48C10.5608 48 6.94324 47.3193 3.81201 44.188C0.661218 41.0373 0 37.4392 0 24C0 10.5608 0.680714 6.96273 3.81201 3.81201C6.94324 0.680714 10.5608 0 24 0C37.4392 0 41.0568 0.680714 44.188 3.81201C47.3387 6.96273 48 10.5608 48 24C48 37.4392 47.3387 41.0373 44.188 44.188C41.0568 47.3193 37.4392 48 24 48Z" fill="black"/>
</g>
<path fill-rule="evenodd" clip-rule="evenodd" d="M26.4165 17.5599C27.4157 17.5599 27.8271 17.1858 27.8271 16.2996C27.8271 15.3741 27.3961 15 26.4165 15C25.4369 15 25.0059 15.3741 25.0059 16.2996C25.0059 17.1858 25.4173 17.5599 26.4165 17.5599ZM25.0456 27.7985L24.8693 27.6804L27.2006 19.4492H22.4791L21.9697 21.2805L24.7125 21.2609L22.9297 27.5425C22.6162 28.6846 23.3803 29.748 24.6341 29.748C25.026 29.748 25.4178 29.6495 25.8488 29.3739L29.0619 27.1881L28.0823 25.7309L25.0456 27.7985ZM19.0112 17.1074H11.0179V22.1683C11.0179 24.7478 10.5673 26.7565 9.96004 27.6622H9V32.2505H10.9788V29.5329H18.4626V32.2505H20.4414V27.6622H19.0112V17.1074ZM13.0167 22.0891V19.0566H16.9349V27.6619H12.0176C12.5465 26.7364 13.0167 24.59 13.0167 22.0891ZM38.2503 19.4492H33.5876C31.6088 19.4492 30.257 20.7488 30.257 22.6196C30.257 24.0964 31.0994 25.2189 32.4316 25.6127L29.8848 29.5117H32.1377L34.43 25.9671H36.2324V29.5117H38.2503V19.4492ZM33.8231 24.2159C32.9022 24.2159 32.2949 23.6054 32.2949 22.6996C32.2949 21.8135 32.9022 21.2031 33.8231 21.2031H36.2328V24.2159H33.8231Z" fill="white"/>
</svg>
